<?xml version="1.0" encoding="UTF-8" standalone="no"?>
<svg
   xmlns:dc="http://purl.org/dc/elements/1.1/"
   xmlns:cc="http://creativecommons.org/ns#"
   xmlns:rdf="http://www.w3.org/1999/02/22-rdf-syntax-ns#"
   xmlns:svg="http://www.w3.org/2000/svg"
   xmlns="http://www.w3.org/2000/svg"
   width="512"
   height="512"
   viewBox="0 0 135.46667 135.46667"
   version="1.1"
   id="svg2917">
  <defs
     id="defs2911">
    <clipPath
       clipPathUnits="userSpaceOnUse"
       id="clipPath2801">
      <path
         d="M 0,595.276 H 841.89 V 0 H 0 Z"
         id="path2799" />
    </clipPath>
  </defs>
  <metadata
     id="metadata2914">
    <rdf:RDF>
      <cc:Work
         rdf:about="">
        <dc:format>image/svg+xml</dc:format>
        <dc:type
           rdf:resource="http://purl.org/dc/dcmitype/StillImage" />
        <dc:title></dc:title>
      </cc:Work>
    </rdf:RDF>
  </metadata>
  <g
     id="layer1">
    <g
       id="g2795"
       transform="matrix(1.0330298,0,0,-0.99844151,-352.35589,413.2945)">
      <g
         id="g2797"
         clip-path="url(#clipPath2801)">
        <g
           id="g2803"
           transform="translate(389.7236,285.7867)">
          <path
             d="m 0,0 c -2.268,0 -4.737,0.273 -7.54,0.807 -9.127,1.735 -19.785,9.616 -19.785,26.114 0,15.773 15.04,27.512 16.026,28.264 L 17.3,77.872 45.899,55.185 C 46.887,54.432 61.926,42.693 61.926,26.921 61.926,10.514 51.385,2.629 42.291,0.836 40.739,0.389 32.375,-1.503 20.922,5.567 10.458,11.588 1.05,22.429 0.011,23.646 c -4.215,4.938 -9.347,15.714 -1.842,24.783 1.697,2.051 5.543,4.255 9.983,4.255 h 0.025 c 2.477,-0.005 5.917,-0.703 9.269,-3.677 2.123,1.638 5.553,3.612 9.555,3.406 3.95,-0.208 7.45,-2.407 10.403,-6.534 2.471,-3.454 3.224,-7.656 2.178,-12.152 -2.004,-8.613 -10.07,-16.288 -12.797,-17.751 -1.389,-0.746 -3.12,-0.224 -3.866,1.166 -0.746,1.389 -0.224,3.12 1.166,3.865 1.564,0.84 8.343,7.169 9.936,14.014 0.681,2.932 0.269,5.396 -1.261,7.535 -1.885,2.635 -3.916,4.032 -6.035,4.152 -3.831,0.214 -7.263,-3.532 -7.297,-3.57 l -2.222,-2.461 -2.112,2.553 c -2.036,2.479 -4.367,3.739 -6.928,3.744 H 8.151 c -2.823,0 -5.015,-1.5 -5.583,-2.185 -6.374,-7.703 1.45,-17.041 1.786,-17.435 0.975,-1.142 9.805,-11.32 19.452,-16.858 l 0.08,-0.048 C 33.885,4.262 40.434,6.234 40.707,6.321 l 0.196,0.068 0.17,0.027 c 7.321,1.393 15.142,7.51 15.142,20.505 0,13.096 -13.654,23.628 -13.792,23.733 L 42.374,50.692 17.3,70.583 -7.826,50.652 C -7.96,50.549 -21.615,40.017 -21.615,26.921 -21.615,13.926 -13.793,7.809 -6.473,6.416 1.068,4.982 4.734,5.856 8.517,7.852 9.913,8.587 11.639,8.053 12.375,6.658 13.11,5.264 12.576,3.536 11.181,2.801 7.586,0.905 4.126,0 0,0"
             style="fill:#E31662;fill-opacity:1;fill-rule:nonzero;stroke:none"

             id="path2805" />
        </g>
        <g
           id="g2807"
           transform="translate(439.666,382.2242)">
          <path
             d="m 0,0 h 0.005 z m -9.247,20.329 c -1.953,0 -4.078,-0.923 -6.139,-2.692 -3.001,-2.577 -5.398,-6.53 -6.75,-11.131 -2.619,-8.912 -0.39,-17.746 4.866,-19.291 5.257,-1.545 11.912,4.679 14.531,13.59 2.619,8.912 0.39,17.746 -4.866,19.291 -0.53,0.156 -1.079,0.233 -1.642,0.233 m -6.346,-39.065 c -1.102,0 -2.202,0.153 -3.287,0.472 -8.51,2.502 -12.347,14.089 -8.734,26.38 1.659,5.646 4.68,10.566 8.508,13.853 4.172,3.583 8.829,4.864 13.111,3.606 C 2.516,23.074 6.353,11.486 2.739,-0.805 -0.413,-11.53 -8.046,-18.736 -15.593,-18.736"
             style="fill:#E31662;fill-opacity:1;fill-rule:nonzero;stroke:none"
             id="path2809" />
        </g>
        <g
           id="g2811"
           transform="translate(466.1836,355.3458)">
          <path
             d="m 0,0 h 0.004 z m -8.389,19.664 c -1.645,0 -3.422,-0.551 -5.194,-1.634 -3.086,-1.884 -5.714,-5.078 -7.4,-8.993 -3.281,-7.617 -1.847,-15.863 3.129,-18.006 4.976,-2.142 11.951,2.482 15.231,10.098 1.686,3.916 2.201,8.02 1.45,11.557 -0.675,3.177 -2.301,5.467 -4.579,6.448 -0.821,0.354 -1.708,0.53 -2.637,0.53 m -6.915,-34.854 c -1.649,0 -3.271,0.315 -4.809,0.977 -7.954,3.425 -10.697,14.868 -6.115,25.508 2.15,4.992 5.583,9.115 9.669,11.609 4.398,2.685 9.038,3.21 13.066,1.475 C 0.534,22.645 3.342,18.913 4.413,13.873 5.407,9.19 4.771,3.862 2.622,-1.129 -1.074,-9.712 -8.425,-15.19 -15.304,-15.19"
             style="fill:#E31662;fill-opacity:1;fill-rule:nonzero;stroke:none"
             id="path2813" />
        </g>
        <g
           id="g2815"
           transform="translate(383.6484,402.5563)">
          <path
             d="m 0,0 c -0.565,0 -1.12,-0.077 -1.662,-0.236 -5.256,-1.545 -7.485,-10.379 -4.866,-19.291 1.352,-4.6 3.75,-8.554 6.75,-11.131 2.655,-2.28 5.418,-3.153 7.781,-2.459 5.257,1.545 7.485,10.379 4.866,19.291 C 10.52,-5.832 4.922,0 0,0 m 6.335,-39.067 c -3.309,0 -6.707,1.392 -9.834,4.077 -3.827,3.287 -6.848,8.207 -8.507,13.853 -3.613,12.291 0.224,23.879 8.734,26.38 8.51,2.502 18.007,-5.167 21.62,-17.459 3.612,-12.291 -0.224,-23.878 -8.735,-26.38 -1.074,-0.315 -2.171,-0.471 -3.278,-0.471"
             style="fill:#E31662;fill-opacity:1;fill-rule:nonzero;stroke:none"
             id="path2817" />
        </g>
        <g
           id="g2819"
           transform="translate(356.2524,375.0094)">
          <path
             d="M 0,0 C -0.928,0 -1.815,-0.175 -2.637,-0.529 -4.915,-1.51 -6.541,-3.8 -7.216,-6.978 c -0.751,-3.536 -0.236,-7.64 1.45,-11.556 2.736,-6.352 8.042,-10.623 12.614,-10.623 0.911,0 1.792,0.169 2.618,0.525 4.976,2.143 6.409,10.388 3.129,18.005 -1.686,3.916 -4.315,7.11 -7.4,8.994 C 3.422,-0.551 1.646,0 0,0 m 6.916,-34.854 c -6.879,0 -14.23,5.479 -17.926,14.062 -2.15,4.991 -2.786,10.318 -1.791,15.001 1.071,5.041 3.878,8.772 7.905,10.506 4.028,1.734 8.668,1.211 13.066,-1.475 4.086,-2.494 7.52,-6.617 9.669,-11.609 4.582,-10.639 1.839,-22.082 -6.114,-25.508 -1.538,-0.662 -3.161,-0.977 -4.809,-0.977"
             style="fill:#E31662;fill-opacity:1;fill-rule:nonzero;stroke:none"
             id="path2821" />
        </g>
      </g>
    </g>
  </g>
</svg>
